<svg xmlns="http://www.w3.org/2000/svg" xmlns:xlink="http://www.w3.org/1999/xlink" contentStyleType="text/css" height="751px" preserveAspectRatio="none" style="width:780px;height:751px;background:#FFFFFF;" version="1.1" viewBox="0 0 780 751" width="780px" zoomAndPan="magnify"><title>Keyple - keyple-interop-localreader-nfcmobile-kmp-lib - 1.0.+ (2025-05-21)</title><defs><filter height="1" id="bd4p01lei137l0" width="1" x="0" y="0"><feFlood flood-color="#FFFF00" result="flood"/><feComposite in="SourceGraphic" in2="flood" operator="over"/></filter></defs><g><text fill="#000000" font-family="sans-serif" font-size="14" font-weight="bold" lengthAdjust="spacing" textLength="487.4297" x="139.2852" y="25.1074">Keyple - keyple-interop-localreader-nfcmobile-kmp-lib - 1.0.+ (2025-05-21)</text><rect fill="#DDDDDD" height="65.8633" id="_legend" rx="7.5" ry="7.5" style="stroke:#000000;stroke-width:1.0;" width="271.0273" x="247.4863" y="51.6211"/><text fill="#000000" font-family="sans-serif" font-size="14" lengthAdjust="spacing" text-decoration="underline" textLength="86.3857" x="252.4863" y="71.7285">Colors legend</text><text fill="#000000" font-family="sans-serif" font-size="14" lengthAdjust="spacing" textLength="3.8896" x="342.7617" y="71.7285">:</text><ellipse cx="257.9863" cy="86.3633" fill="#000000" rx="2.5" ry="2.5" style="stroke:#000000;stroke-width:0.0;"/><text fill="#000000" font-family="sans-serif" font-size="14" lengthAdjust="spacing" text-decoration="underline" textLength="188.3164" x="264.4863" y="90.3496">External public API references</text><text fill="#000000" font-family="sans-serif" font-size="14" lengthAdjust="spacing" textLength="3.8896" x="456.6924" y="90.3496">:</text><rect fill="#000000" height="3.5" style="stroke:#000000;stroke-width:0.0;" width="3.5" x="261.4863" y="102.4844"/><text fill="#000000" filter="url(#bd4p01lei137l0)" font-family="sans-serif" font-size="14" font-weight="bold" lengthAdjust="spacing" textLength="245.0273" x="268.4863" y="108.9707">keyple-interop-jsonapi-client-kmp-lib</text><!--cluster root--><g id="cluster_root"><path d="M8.5,136.498 L330.8301,136.498 A3.75,3.75 0 0 1 333.3301,138.998 L340.3301,161.1191 L770.5,161.1191 A2.5,2.5 0 0 1 773,163.6191 L773,741.998 A2.5,2.5 0 0 1 770.5,744.498 L8.5,744.498 A2.5,2.5 0 0 1 6,741.998 L6,138.998 A2.5,2.5 0 0 1 8.5,136.498 " fill="#F8F9F9" style="stroke:#000000;stroke-width:1.5;"/><line style="stroke:#000000;stroke-width:1.5;" x1="6" x2="340.3301" y1="161.1191" y2="161.1191"/><text fill="#000000" font-family="sans-serif" font-size="14" font-weight="bold" lengthAdjust="spacing" textLength="321.3301" x="10" y="153.6055">org.eclipse.keyple.interop.localreader.nfcmobile</text></g><!--class MultiplatformNfcReader--><g id="elem_MultiplatformNfcReader"><rect codeLine="61" fill="#FEFECE" height="375.8008" id="MultiplatformNfcReader" rx="2.5" ry="2.5" style="stroke:#D4AC0D;stroke-width:2.0;" width="350.4541" x="22" y="173.498"/><ellipse cx="113.9531" cy="197.1191" fill="#ADD1B2" rx="11" ry="11" style="stroke:#181818;stroke-width:1.0;"/><path d="M116.7188,192.9941 Q116.875,192.7754 117.0625,192.666 Q117.25,192.5566 117.4688,192.5566 Q117.8438,192.5566 118.0781,192.8223 Q118.3125,193.0723 118.3125,193.6816 L118.3125,195.1348 Q118.3125,195.7441 118.0781,196.0098 Q117.8438,196.2754 117.4688,196.2754 Q117.125,196.2754 116.9219,196.0723 Q116.7188,195.8848 116.6094,195.3691 Q116.5625,195.0098 116.375,194.8223 Q116.0469,194.4473 115.4375,194.2285 Q114.8281,194.0098 114.2031,194.0098 Q113.4375,194.0098 112.7969,194.3379 Q112.1719,194.666 111.6719,195.416 Q111.1875,196.166 111.1875,197.1973 L111.1875,198.291 Q111.1875,199.5254 112.0781,200.3535 Q112.9688,201.166 114.5625,201.166 Q115.5,201.166 116.1563,200.916 Q116.5469,200.7598 116.9688,200.3223 Q117.2344,200.0566 117.375,199.9785 Q117.5313,199.9004 117.7344,199.9004 Q118.0625,199.9004 118.3125,200.166 Q118.5781,200.416 118.5781,200.7598 Q118.5781,201.1035 118.2344,201.5098 Q117.7344,202.0879 116.9375,202.416 Q115.8594,202.8691 114.5625,202.8691 Q113.0469,202.8691 111.8438,202.2441 Q110.8594,201.7441 110.1719,200.6816 Q109.4844,199.6035 109.4844,198.3223 L109.4844,197.166 Q109.4844,195.8379 110.0938,194.6973 Q110.7188,193.541 111.8125,192.9316 Q112.9063,192.3066 114.1406,192.3066 Q114.875,192.3066 115.5156,192.4785 Q116.1719,192.6348 116.7188,192.9941 Z " fill="#000000"/><ellipse cx="139.4531" cy="196.6191" fill="#84BE84" rx="3" ry="3" style="stroke:#038048;stroke-width:1.0;"/><text fill="#000000" font-family="sans-serif" font-size="14" lengthAdjust="spacing" textLength="16.3516" x="162.9326" y="193.6055">&lt;&lt;</text><text fill="#000000" filter="url(#bd4p01lei137l0)" font-family="sans-serif" font-size="14" lengthAdjust="spacing" textLength="79.3857" x="179.2842" y="193.6055">LocalReader</text><text fill="#000000" font-family="sans-serif" font-size="14" lengthAdjust="spacing" textLength="16.3516" x="258.6699" y="193.6055">&gt;&gt;</text><text fill="#000000" font-family="sans-serif" font-size="14" lengthAdjust="spacing" textLength="147.0479" x="145.4531" y="212.2266">MultiplatformNfcReader</text><line style="stroke:#D4AC0D;stroke-width:2.0;" x1="23" x2="371.4541" y1="220.7402" y2="220.7402"/><ellipse cx="33" cy="254.1719" fill="#84BE84" rx="3" ry="3" style="stroke:#038048;stroke-width:1.0;"/><text fill="#000000" font-family="sans-serif" font-size="14" lengthAdjust="spacing" textLength="151.71" x="42" y="239.8477">MultiplatformNfcReader(</text><text fill="#000000" font-family="sans-serif" font-size="14" font-weight="bold" lengthAdjust="spacing" textLength="69.2617" x="73.1172" y="258.4688">private val</text><text fill="#000000" font-family="sans-serif" font-size="14" lengthAdjust="spacing" textLength="172.7578" x="146.2686" y="258.4688">nfcReader: LocalNfcReader</text><text fill="#000000" font-family="sans-serif" font-size="14" lengthAdjust="spacing" textLength="4.6621" x="42" y="277.0898">)</text><ellipse cx="33" cy="314.0352" fill="#84BE84" rx="3" ry="3" style="stroke:#038048;stroke-width:1.0;"/><text fill="#000000" font-family="sans-serif" font-size="14" lengthAdjust="spacing" textLength="110.4824" x="42" y="318.332">getName(): String</text><ellipse cx="33" cy="332.6563" fill="#84BE84" rx="3" ry="3" style="stroke:#038048;stroke-width:1.0;"/><text fill="#000000" font-family="sans-serif" font-size="14" lengthAdjust="spacing" textLength="217.875" x="42" y="336.9531">setScanMessage(message: String)</text><text fill="#000000" font-family="sans-serif" font-size="14" lengthAdjust="spacing" textLength="3.8896" x="42" y="355.5742">&#160;</text><ellipse cx="33" cy="369.8984" fill="#84BE84" rx="3" ry="3" style="stroke:#038048;stroke-width:1.0;"/><text fill="#000000" font-family="sans-serif" font-size="14" font-weight="bold" lengthAdjust="spacing" textLength="57.5654" x="42" y="374.1953">suspend</text><text fill="#000000" font-family="sans-serif" font-size="14" lengthAdjust="spacing" textLength="192.9717" x="103.4551" y="374.1953">waitForCardPresent(): Boolean</text><ellipse cx="33" cy="388.5195" fill="#84BE84" rx="3" ry="3" style="stroke:#038048;stroke-width:1.0;"/><text fill="#000000" font-family="sans-serif" font-size="14" lengthAdjust="spacing" textLength="290.6094" x="42" y="392.8164">startCardDetection(onCardDetected: () -&gt; Unit)</text><text fill="#000000" font-family="sans-serif" font-size="14" lengthAdjust="spacing" textLength="3.8896" x="42" y="411.4375">&#160;</text><ellipse cx="33" cy="425.7617" fill="#84BE84" rx="3" ry="3" style="stroke:#038048;stroke-width:1.0;"/><text fill="#000000" font-family="sans-serif" font-size="14" lengthAdjust="spacing" textLength="144.751" x="42" y="430.0586">openPhysicalChannel()</text><ellipse cx="33" cy="444.3828" fill="#84BE84" rx="3" ry="3" style="stroke:#038048;stroke-width:1.0;"/><text fill="#000000" font-family="sans-serif" font-size="14" lengthAdjust="spacing" textLength="146.2891" x="42" y="448.6797">closePhysicalChannel()</text><text fill="#000000" font-family="sans-serif" font-size="14" lengthAdjust="spacing" textLength="3.8896" x="42" y="467.3008">&#160;</text><ellipse cx="33" cy="481.625" fill="#84BE84" rx="3" ry="3" style="stroke:#038048;stroke-width:1.0;"/><text fill="#000000" font-family="sans-serif" font-size="14" lengthAdjust="spacing" textLength="161.0684" x="42" y="485.9219">getPowerOnData(): String</text><ellipse cx="33" cy="500.2461" fill="#84BE84" rx="3" ry="3" style="stroke:#038048;stroke-width:1.0;"/><text fill="#000000" font-family="sans-serif" font-size="14" lengthAdjust="spacing" textLength="324.4541" x="42" y="504.543">transmitApdu(commandApdu: ByteArray): ByteArray</text><text fill="#000000" font-family="sans-serif" font-size="14" lengthAdjust="spacing" textLength="3.8896" x="42" y="523.1641">&#160;</text><ellipse cx="33" cy="537.4883" fill="#84BE84" rx="3" ry="3" style="stroke:#038048;stroke-width:1.0;"/><text fill="#000000" font-family="sans-serif" font-size="14" lengthAdjust="spacing" textLength="55.2412" x="42" y="541.7852">release()</text><line style="stroke:#D4AC0D;stroke-width:1.0;" x1="23" x2="155.21" y1="293.9141" y2="293.9141"/><text fill="#000000" font-family="sans-serif" font-size="14" font-weight="bold" lengthAdjust="spacing" textLength="84.0342" x="155.21" y="299.2109">LocalReader</text><line style="stroke:#D4AC0D;stroke-width:1.0;" x1="239.2441" x2="371.4541" y1="293.9141" y2="293.9141"/></g><!--class LocalNfcReader--><g id="elem_LocalNfcReader"><rect codeLine="78" fill="#FEFECE" height="271.4531" id="LocalNfcReader" rx="2.5" ry="2.5" style="stroke:#D4AC0D;stroke-width:2.0;" width="350.4541" x="407" y="225.998"/><ellipse cx="498.1602" cy="241.998" fill="#ADD1B2" rx="11" ry="11" style="stroke:#181818;stroke-width:1.0;"/><path d="M500.9258,237.873 Q501.082,237.6543 501.2695,237.5449 Q501.457,237.4355 501.6758,237.4355 Q502.0508,237.4355 502.2852,237.7012 Q502.5195,237.9512 502.5195,238.5605 L502.5195,240.0137 Q502.5195,240.623 502.2852,240.8887 Q502.0508,241.1543 501.6758,241.1543 Q501.332,241.1543 501.1289,240.9512 Q500.9258,240.7637 500.8164,240.248 Q500.7695,239.8887 500.582,239.7012 Q500.2539,239.3262 499.6445,239.1074 Q499.0352,238.8887 498.4102,238.8887 Q497.6445,238.8887 497.0039,239.2168 Q496.3789,239.5449 495.8789,240.2949 Q495.3945,241.0449 495.3945,242.0762 L495.3945,243.1699 Q495.3945,244.4043 496.2852,245.2324 Q497.1758,246.0449 498.7695,246.0449 Q499.707,246.0449 500.3633,245.7949 Q500.7539,245.6387 501.1758,245.2012 Q501.4414,244.9355 501.582,244.8574 Q501.7383,244.7793 501.9414,244.7793 Q502.2695,244.7793 502.5195,245.0449 Q502.7852,245.2949 502.7852,245.6387 Q502.7852,245.9824 502.4414,246.3887 Q501.9414,246.9668 501.1445,247.2949 Q500.0664,247.748 498.7695,247.748 Q497.2539,247.748 496.0508,247.123 Q495.0664,246.623 494.3789,245.5605 Q493.6914,244.4824 493.6914,243.2012 L493.6914,242.0449 Q493.6914,240.7168 494.3008,239.5762 Q494.9258,238.4199 496.0195,237.8105 Q497.1133,237.1855 498.3477,237.1855 Q499.082,237.1855 499.7227,237.3574 Q500.3789,237.5137 500.9258,237.873 Z " fill="#000000"/><ellipse cx="523.6602" cy="241.498" fill="#84BE84" rx="3" ry="3" style="stroke:#038048;stroke-width:1.0;"/><text fill="#000000" font-family="sans-serif" font-size="14" font-weight="bold" lengthAdjust="spacing" textLength="44.3584" x="529.6602" y="247.7949">expect</text><text fill="#000000" font-family="sans-serif" font-size="14" lengthAdjust="spacing" textLength="100.3857" x="577.9082" y="247.7949">LocalNfcReader</text><line style="stroke:#D4AC0D;stroke-width:2.0;" x1="408" x2="756.4541" y1="257.998" y2="257.998"/><ellipse cx="418" cy="272.8086" fill="none" rx="3" ry="3" style="stroke:#038048;stroke-width:1.0;"/><text fill="#000000" font-family="sans-serif" font-size="14" font-weight="bold" lengthAdjust="spacing" textLength="21.0205" x="427" y="277.1055">var</text><text fill="#000000" font-family="sans-serif" font-size="14" lengthAdjust="spacing" textLength="130.7305" x="451.9102" y="277.1055">scanMessage: String</text><ellipse cx="418" cy="291.4297" fill="none" rx="3" ry="3" style="stroke:#038048;stroke-width:1.0;"/><text fill="#000000" font-family="sans-serif" font-size="14" font-weight="bold" lengthAdjust="spacing" textLength="21.0205" x="427" y="295.7266">var</text><text fill="#000000" font-family="sans-serif" font-size="14" lengthAdjust="spacing" textLength="79.3721" x="451.9102" y="295.7266">name: String</text><line style="stroke:#D4AC0D;stroke-width:2.0;" x1="408" x2="756.4541" y1="303.2402" y2="303.2402"/><ellipse cx="418" cy="318.0508" fill="#84BE84" rx="3" ry="3" style="stroke:#038048;stroke-width:1.0;"/><text fill="#000000" font-family="sans-serif" font-size="14" font-weight="bold" lengthAdjust="spacing" textLength="57.5654" x="427" y="322.3477">suspend</text><text fill="#000000" font-family="sans-serif" font-size="14" lengthAdjust="spacing" textLength="192.9717" x="488.4551" y="322.3477">waitForCardPresent(): Boolean</text><ellipse cx="418" cy="336.6719" fill="#84BE84" rx="3" ry="3" style="stroke:#038048;stroke-width:1.0;"/><text fill="#000000" font-family="sans-serif" font-size="14" lengthAdjust="spacing" textLength="290.6094" x="427" y="340.9688">startCardDetection(onCardDetected: () -&gt; Unit)</text><text fill="#000000" font-family="sans-serif" font-size="14" lengthAdjust="spacing" textLength="3.8896" x="427" y="359.5898">&#160;</text><ellipse cx="418" cy="373.9141" fill="#84BE84" rx="3" ry="3" style="stroke:#038048;stroke-width:1.0;"/><text fill="#000000" font-family="sans-serif" font-size="14" lengthAdjust="spacing" textLength="144.751" x="427" y="378.2109">openPhysicalChannel()</text><ellipse cx="418" cy="392.5352" fill="#84BE84" rx="3" ry="3" style="stroke:#038048;stroke-width:1.0;"/><text fill="#000000" font-family="sans-serif" font-size="14" lengthAdjust="spacing" textLength="146.2891" x="427" y="396.832">closePhysicalChannel()</text><text fill="#000000" font-family="sans-serif" font-size="14" lengthAdjust="spacing" textLength="3.8896" x="427" y="415.4531">&#160;</text><ellipse cx="418" cy="429.7773" fill="#84BE84" rx="3" ry="3" style="stroke:#038048;stroke-width:1.0;"/><text fill="#000000" font-family="sans-serif" font-size="14" lengthAdjust="spacing" textLength="161.0684" x="427" y="434.0742">getPowerOnData(): String</text><ellipse cx="418" cy="448.3984" fill="#84BE84" rx="3" ry="3" style="stroke:#038048;stroke-width:1.0;"/><text fill="#000000" font-family="sans-serif" font-size="14" lengthAdjust="spacing" textLength="324.4541" x="427" y="452.6953">transmitApdu(commandApdu: ByteArray): ByteArray</text><text fill="#000000" font-family="sans-serif" font-size="14" lengthAdjust="spacing" textLength="3.8896" x="427" y="471.3164">&#160;</text><ellipse cx="418" cy="485.6406" fill="#84BE84" rx="3" ry="3" style="stroke:#038048;stroke-width:1.0;"/><text fill="#000000" font-family="sans-serif" font-size="14" lengthAdjust="spacing" textLength="101.1582" x="427" y="489.9375">releaseReader()</text></g><!--class LocalNfcReaderAndroid--><g id="elem_LocalNfcReaderAndroid"><rect codeLine="93" fill="#FEFECE" height="119.1055" id="LocalNfcReaderAndroid" rx="2.5" ry="2.5" style="stroke:#D4AC0D;stroke-width:2.0;" width="225.1719" x="137.5" y="609.498"/><ellipse cx="169.3456" cy="633.1191" fill="#ADD1B2" rx="11" ry="11" style="stroke:#181818;stroke-width:1.0;"/><path d="M172.1112,628.9941 Q172.2674,628.7754 172.4549,628.666 Q172.6424,628.5566 172.8612,628.5566 Q173.2362,628.5566 173.4706,628.8223 Q173.7049,629.0723 173.7049,629.6816 L173.7049,631.1348 Q173.7049,631.7441 173.4706,632.0098 Q173.2362,632.2754 172.8612,632.2754 Q172.5174,632.2754 172.3143,632.0723 Q172.1112,631.8848 172.0018,631.3691 Q171.9549,631.0098 171.7674,630.8223 Q171.4393,630.4473 170.8299,630.2285 Q170.2206,630.0098 169.5956,630.0098 Q168.8299,630.0098 168.1893,630.3379 Q167.5643,630.666 167.0643,631.416 Q166.5799,632.166 166.5799,633.1973 L166.5799,634.291 Q166.5799,635.5254 167.4706,636.3535 Q168.3612,637.166 169.9549,637.166 Q170.8924,637.166 171.5487,636.916 Q171.9393,636.7598 172.3612,636.3223 Q172.6268,636.0566 172.7674,635.9785 Q172.9237,635.9004 173.1268,635.9004 Q173.4549,635.9004 173.7049,636.166 Q173.9706,636.416 173.9706,636.7598 Q173.9706,637.1035 173.6268,637.5098 Q173.1268,638.0879 172.3299,638.416 Q171.2518,638.8691 169.9549,638.8691 Q168.4393,638.8691 167.2362,638.2441 Q166.2518,637.7441 165.5643,636.6816 Q164.8768,635.6035 164.8768,634.3223 L164.8768,633.166 Q164.8768,631.8379 165.4862,630.6973 Q166.1112,629.541 167.2049,628.9316 Q168.2987,628.3066 169.5331,628.3066 Q170.2674,628.3066 170.9081,628.4785 Q171.5643,628.6348 172.1112,628.9941 Z " fill="#000000"/><ellipse cx="192.089" cy="632.6191" fill="#84BE84" rx="3" ry="3" style="stroke:#038048;stroke-width:1.0;"/><text fill="#000000" font-family="sans-serif" font-size="14" lengthAdjust="spacing" textLength="63.8271" x="238.5441" y="629.6055">&#171;Android&#187;</text><text fill="#000000" font-family="sans-serif" font-size="14" font-weight="bold" lengthAdjust="spacing" textLength="40.4619" x="198.089" y="648.2266">actual</text><text fill="#000000" font-family="sans-serif" font-size="14" lengthAdjust="spacing" textLength="100.3857" x="242.4406" y="648.2266">LocalNfcReader</text><line style="stroke:#D4AC0D;stroke-width:2.0;" x1="138.5" x2="361.6719" y1="656.7402" y2="656.7402"/><line style="stroke:#D4AC0D;stroke-width:2.0;" x1="138.5" x2="361.6719" y1="664.7402" y2="664.7402"/><ellipse cx="148.5" cy="698.1719" fill="#84BE84" rx="3" ry="3" style="stroke:#038048;stroke-width:1.0;"/><text fill="#000000" font-family="sans-serif" font-size="14" lengthAdjust="spacing" textLength="105.0479" x="157.5" y="683.8477">LocalNfcReader(</text><text fill="#000000" font-family="sans-serif" font-size="14" font-weight="bold" lengthAdjust="spacing" textLength="69.2617" x="188.6172" y="702.4688">private val</text><text fill="#000000" font-family="sans-serif" font-size="14" lengthAdjust="spacing" textLength="94.9033" x="261.7686" y="702.4688">activity: Activity</text><text fill="#000000" font-family="sans-serif" font-size="14" lengthAdjust="spacing" textLength="4.6621" x="157.5" y="721.0898">)</text></g><!--class LocalNfcReaderIOS--><g id="elem_LocalNfcReaderIOS"><rect codeLine="96" fill="#FEFECE" height="119.1055" id="LocalNfcReaderIOS" rx="2.5" ry="2.5" style="stroke:#D4AC0D;stroke-width:2.0;" width="358.6299" x="397.5" y="609.498"/><ellipse cx="494.6963" cy="633.1191" fill="#ADD1B2" rx="11" ry="11" style="stroke:#181818;stroke-width:1.0;"/><path d="M497.4619,628.9941 Q497.6182,628.7754 497.8057,628.666 Q497.9932,628.5566 498.2119,628.5566 Q498.5869,628.5566 498.8213,628.8223 Q499.0557,629.0723 499.0557,629.6816 L499.0557,631.1348 Q499.0557,631.7441 498.8213,632.0098 Q498.5869,632.2754 498.2119,632.2754 Q497.8682,632.2754 497.665,632.0723 Q497.4619,631.8848 497.3525,631.3691 Q497.3057,631.0098 497.1182,630.8223 Q496.79,630.4473 496.1807,630.2285 Q495.5713,630.0098 494.9463,630.0098 Q494.1807,630.0098 493.54,630.3379 Q492.915,630.666 492.415,631.416 Q491.9307,632.166 491.9307,633.1973 L491.9307,634.291 Q491.9307,635.5254 492.8213,636.3535 Q493.7119,637.166 495.3057,637.166 Q496.2432,637.166 496.8994,636.916 Q497.29,636.7598 497.7119,636.3223 Q497.9775,636.0566 498.1182,635.9785 Q498.2744,635.9004 498.4775,635.9004 Q498.8057,635.9004 499.0557,636.166 Q499.3213,636.416 499.3213,636.7598 Q499.3213,637.1035 498.9775,637.5098 Q498.4775,638.0879 497.6807,638.416 Q496.6025,638.8691 495.3057,638.8691 Q493.79,638.8691 492.5869,638.2441 Q491.6025,637.7441 490.915,636.6816 Q490.2275,635.6035 490.2275,634.3223 L490.2275,633.166 Q490.2275,631.8379 490.8369,630.6973 Q491.4619,629.541 492.5557,628.9316 Q493.6494,628.3066 494.8838,628.3066 Q495.6182,628.3066 496.2588,628.4785 Q496.915,628.6348 497.4619,628.9941 Z " fill="#000000"/><ellipse cx="520.1963" cy="632.6191" fill="#84BE84" rx="3" ry="3" style="stroke:#038048;stroke-width:1.0;"/><text fill="#000000" font-family="sans-serif" font-size="14" lengthAdjust="spacing" textLength="38.9102" x="579.1099" y="629.6055">&#171;iOS&#187;</text><text fill="#000000" font-family="sans-serif" font-size="14" font-weight="bold" lengthAdjust="spacing" textLength="40.4619" x="526.1963" y="648.2266">actual</text><text fill="#000000" font-family="sans-serif" font-size="14" lengthAdjust="spacing" textLength="100.3857" x="570.5479" y="648.2266">LocalNfcReader</text><line style="stroke:#D4AC0D;stroke-width:2.0;" x1="398.5" x2="755.1299" y1="656.7402" y2="656.7402"/><line style="stroke:#D4AC0D;stroke-width:2.0;" x1="398.5" x2="755.1299" y1="664.7402" y2="664.7402"/><ellipse cx="408.5" cy="698.1719" fill="#84BE84" rx="3" ry="3" style="stroke:#038048;stroke-width:1.0;"/><text fill="#000000" font-family="sans-serif" font-size="14" lengthAdjust="spacing" textLength="105.0479" x="417.5" y="683.8477">LocalNfcReader(</text><text fill="#000000" font-family="sans-serif" font-size="14" font-weight="bold" lengthAdjust="spacing" textLength="69.2617" x="448.6172" y="702.4688">private val</text><text fill="#000000" font-family="sans-serif" font-size="14" lengthAdjust="spacing" textLength="228.3613" x="521.7686" y="702.4688">getErrorMsg: (e: Exception) -&gt; String</text><text fill="#000000" font-family="sans-serif" font-size="14" lengthAdjust="spacing" textLength="4.6621" x="417.5" y="721.0898">)</text></g><!--reverse link LocalNfcReader to LocalNfcReaderAndroid--><g id="link_LocalNfcReader_LocalNfcReaderAndroid"><path d="M432.1287,509.5547 C413.4287,527.3447 407.38,532.788 389,549.498 C367.06,569.438 342.6,590.628 320.4,609.478 " fill="none" id="LocalNfcReader-backto-LocalNfcReaderAndroid" style="stroke:#181818;stroke-width:2.0;"/><polygon fill="none" points="445.17,497.148,427.9932,505.2076,436.2643,513.9018,445.17,497.148" style="stroke:#181818;stroke-width:2.0;"/></g><!--reverse link LocalNfcReader to LocalNfcReaderIOS--><g id="link_LocalNfcReader_LocalNfcReaderIOS"><path d="M579.4959,515.3856 C578.8559,554.5456 578.48,577.298 577.96,609.148 " fill="none" id="LocalNfcReader-backto-LocalNfcReaderIOS" style="stroke:#181818;stroke-width:2.0;"/><polygon fill="none" points="579.79,497.388,573.4967,515.2876,585.4951,515.4837,579.79,497.388" style="stroke:#181818;stroke-width:2.0;"/></g><!--reverse link MultiplatformNfcReader to LocalNfcReader--><g id="link_MultiplatformNfcReader_LocalNfcReader"><path codeLine="103" d="M384.1073,502.9248 C402.4073,505.3348 408.81,502.358 427.11,497.118 " fill="none" id="MultiplatformNfcReader-backto-LocalNfcReader" style="stroke:#3498DB;stroke-width:2.0;"/><polygon fill="none" points="372.21,501.358,377.6364,506.1072,384.1073,502.9248,378.6809,498.1757,372.21,501.358" style="stroke:#3498DB;stroke-width:2.0;"/><text fill="#000000" font-family="sans-serif" font-size="13" lengthAdjust="spacing" textLength="7.23" x="410.9466" y="519.4736">1</text></g><!--reverse link MultiplatformNfcReader to LocalNfcReader--><g id="link_MultiplatformNfcReader_LocalNfcReader"><path codeLine="104" d="M388.073,219.549 C406.373,217.139 408.81,220.638 427.11,225.878 " fill="none" id="MultiplatformNfcReader-backto-LocalNfcReader-1" style="stroke:#3498DB;stroke-width:2.0;"/><ellipse cx="380.1415" cy="220.5935" fill="#FFFFFF" rx="8" ry="8" style="stroke:#3498DB;stroke-width:2.0;"/><line style="stroke:#3498DB;stroke-width:2.0;" x1="388.073" x2="372.21" y1="219.549" y2="221.638"/><line style="stroke:#3498DB;stroke-width:2.0;" x1="381.186" x2="379.097" y1="228.525" y2="212.662"/></g><!--SRC=[xLTjR-8u4FxEhvZhVbYQLMXBOMaHYnGIPxVQlgalEbMgLBc90L-37TbEALhjVx-9aq2WjBsJxkFrIytCC_FCYsSCXfk4DG3_Vh95cZ1muSaUN2uCKp9r4ndHH34QC-MASJIJZnorJpFKy4U47xJsMr-WsTvlTztzhji-s6qm4OEnZXkVuTitkFb1pWWUyACliuHbIWFNEcCQOWPzc1gJwlxUtjJCaaWcKaKoPheLoTdUMEqP-fWmchanSwF2Uei8ZvfFX9icrEmr_eZPc0i6_iFtAt9t0E5HU1mURuZR4BR3mx2p8Ju4qYKziedkGD0BHa6m8Uw2x_bXqDuGVuLHu1_wlPhuzEJy9nnsZe-2KKrwUqsWtVF8r_sQyER7rSMVqFOFINS_Bw7hmhLP95WkCwK6OYa-6vXBzGHpRgOWs1oUcT9S2f1Zm188ayqID6le9ovIgkWCD7QJIRD8cJUI2flfvuM6Jzvnu0VXLk396d3KyNgaknNehtiCWeDHUokGh079wFWGgMr-v3p8uwrP-GdLki3VJ7dq99ZMK7VhAINdTHLwkcD98kUllD3eQQ9a9kAIEIGXySbsiX8IT3n_Fq2NLop-mDzWe5Wy7ABRW0J4VyVj4abw7RmUZId7-ry9LsL2rijCuH1-I9nQcENk43_ilSkz0X-HJiSBAlgbV2s2noJxc3y7sNn6OJSSlSjUGSiHABbBwHhpTyMO-91wagCizt7O8-6xt4jiEMebUINUP5_y4_A5vVRm7f6Fk2sq7ESLzMATkLYL_iNv3Jc_iSioOHExIMLg5_J3W_MeeP0_F43VoXtKa1Tq96W2QVQOy0YyonDGR8pEHSJq2kh0u15pwI_id0mTPsFP_wMbe2bteuGpOQejxpY3lTniQ3TxGTzef2YX4mOxKarQ32rIpLg5lrRfhrLxF5hBnsC7g0ObfO5VDgelKLuqs1aCre8xpMslh6r9FnpUYxCiCJpVycEfPkVZg01ObzjL9OabsevetejxupYfui_KC7Yc2TP9LDe-s42Mw7knktI8YyjnQd6Y7Iwn9Ts4cNCwOytTFkvlnSLafTBCN4TKdE7cmXesPyN_2hVRM24THsSwnOgZypdb9fJAfog-L4nZYtBV8odnDHGrvuOgauC2PbXay5reIh7wpE8-D7V17SAjuARE9P7dShhG73FofrG8bZHNsMAVf6QlzMi9NyevKnSYe8PkozieAlIC6o-DioO-y3CguloCMImCmvLE5xkrSystOfYaPcKylzTkZkEmbnGpmnAjDylUYtLH_JuupZFDcwPNhNWTSWKIsCgbzl_-lD6VSgIsTMam04_4Il8Oyabs71gPp0xRXqshx1ZkEH6_rz9rpTRHHbh-pCsY3rvvgcRwLRpyulfVntg2Dlz9dDWjWjznr9cUu8N0kqTU8fRcryLUZg9rgz1_vq-8fxMCECr1kj5uOoDAL_79rBYmSx2p6UAduflgMwPVAjCtp8fNxDIxkxWj7h52S7rpTrhy0gXU3Rl_FrLVq7_zRlmD]--></g></svg>